<?xml version="1.0" encoding="utf-8"?>
<!-- Generator: Adobe Illustrator 26.0.1, SVG Export Plug-In . SVG Version: 6.00 Build 0)  -->
<svg version="1.1" id="Layer_1" xmlns="http://www.w3.org/2000/svg" xmlns:xlink="http://www.w3.org/1999/xlink" x="0px" y="0px"
	 viewBox="0 0 1339.11 170.08" style="enable-background:new 0 0 1339.11 170.08;" xml:space="preserve">
<style type="text/css">
	.st0{fill:#FFFFFF;}
	.st1{fill:none;}
	.st2{fill:#102D69;}
</style>
<g>
	<path class="st0" d="M170.08,85.04c0,46.97-38.07,85.04-85.04,85.04C38.07,170.08,0,132,0,85.04C0,38.07,38.07,0,85.04,0
		C132.01,0,170.08,38.07,170.08,85.04z M243.06,78.94c8.39,0,14.98-5.79,14.98-13.61c0-5.65-2.76-11.51-10.86-13.03
		c4.63-1.73,7.67-6.22,7.67-11.58c0-7.02-5.79-12.45-13.46-12.45h-13.61v50.67H243.06z M233.43,33.77h6.3
		c5.58,0,9.41,2.76,9.41,8.04c0,4.85-3.04,8.04-8.04,8.04h-7.68V33.77z M241.25,73.45h-7.82v-18.1h7.82c6.3,0,11.15,3.84,11.15,9.12
		C252.4,70.4,247.39,73.44,241.25,73.45L241.25,73.45z M282.76,49.77l-9.34,0.08V28.28h-5.65v50.67h14.98
		c8.98,0,15.27-6.16,15.27-14.55C298.04,56.07,291.73,49.7,282.76,49.77z M292.39,64.47c0,5.94-4.28,8.97-10.43,8.97h-8.55v-18.1
		h8.55C288.26,55.34,292.39,59.18,292.39,64.47z M304.69,78.95h5.65V28.28h-5.65V78.95L304.69,78.95z M347.08,80.03
		c8.9,0,16.8-4.42,21.57-11.23l-4.49-3.18c-3.69,5.36-9.85,8.9-17.08,8.9c-11.8,0-20.71-9.34-20.71-20.92s8.91-20.92,20.71-20.92
		c7.25,0,13.39,3.55,17.08,8.9l4.49-3.18c-4.78-6.81-12.67-11.23-21.57-11.23c-14.63,0-26.42,11.79-26.42,26.42
		C320.66,68.23,332.45,80.03,347.08,80.03z M378.15,28.28v50.67h60.08V28.28h-5.65v45.17h-21.57V28.28h-5.65v45.17h-21.57V28.28
		H378.15L378.15,28.28z M453.19,78.94l5.94-14.63h19.69l6.01,14.63h6.29l-21.21-50.67h-1.81l-21.21,50.67H453.19z M468.96,40.22
		l7.53,18.46h-15.05L468.96,40.22z M527.08,59.69v19.25h5.65V28.27h-14.55c-9.05,0-16.22,7.02-16.22,15.78
		c0,7.6,5.65,13.68,12.96,14.84c-3.98,1.52-7.53,14.69-14.55,14.69c-0.58,0-1.23-0.08-1.88-0.29v5.65c1.09,0.36,2.03,0.43,2.97,0.43
		c11.87,0,15.06-17.66,19.76-19.69H527.08z M527.09,54.2h-8.39c-6.16,0-11.15-4.2-11.15-10.14s4.99-10.28,11.15-10.28h8.39V54.2
		L527.09,54.2z M564.6,28.28v50.67h60.08V28.28h-5.65v45.17h-21.57V28.28h-5.65v45.17h-21.57V28.28H564.6L564.6,28.28z
		 M637.24,78.95h5.57v-23.6h4.99c6.29,0,11.94,24.03,24.9,24.03c1.09,0,2.18-0.14,3.19-0.43V73.3c-0.65,0.14-1.3,0.29-1.96,0.29
		c-9.63,0-14.62-20.12-21.21-21.06l21.21-24.25h-6.8l-18.96,21.57h-5.36V28.28h-5.57V78.95L637.24,78.95z M679.8,53.61
		c0,14.63,11.29,26.42,25.91,26.42c14.55,0,25.91-11.79,25.91-26.42c0-14.63-11.36-26.42-25.91-26.42
		C691.09,27.19,679.8,38.98,679.8,53.61z M685.51,53.61c0-11.58,8.4-20.92,20.2-20.92c11.8,0,20.2,9.34,20.2,20.92
		s-8.39,20.92-20.2,20.92C693.92,74.53,685.51,65.19,685.51,53.61z M735.4,78.94c1.45,0.21,2.1,0.43,3.4,0.43
		c9.99,0,15.85-8.61,15.85-45.82h20.34v45.39h5.58V28.28H749.3c0,36.69-4.2,45.53-11.58,45.53c-1.02,0-1.23-0.3-2.32-0.51V78.94z
		 M795.45,78.94l5.94-14.63h19.69l6.01,14.63h6.3l-21.21-50.67h-1.81l-21.21,50.67H795.45z M811.24,40.22l7.53,18.46h-15.06
		L811.24,40.22z M859.1,68.81c4.78,6.81,12.67,11.23,21.57,11.23c14.63,0,26.42-11.79,26.42-26.42c0-14.63-11.79-26.42-26.42-26.42
		c-8.9,0-16.8,4.42-21.57,11.23l4.49,3.18c3.69-5.36,9.85-8.9,17.08-8.9c10.49,0,18.67,7.38,20.41,17.15h-25.84v5.5h26.06
		c-0.87,10.79-9.41,19.18-20.63,19.18c-7.24,0-13.39-3.55-17.08-8.9L859.1,68.81z M917.27,78.95h5.57v-23.6h4.99
		c6.3,0,11.94,24.03,24.9,24.03c1.09,0,2.18-0.14,3.19-0.43V73.3c-0.65,0.14-1.3,0.29-1.96,0.29c-9.63,0-14.62-20.12-21.21-21.06
		l21.21-24.25h-6.8L928.2,49.85h-5.36V28.28h-5.57V78.95L917.27,78.95z M959.83,53.61c0,14.63,11.29,26.42,25.91,26.42
		c14.55,0,25.91-11.79,25.91-26.42c0-14.63-11.36-26.42-25.91-26.42C971.13,27.19,959.83,38.98,959.83,53.61z M965.55,53.61
		c0-11.58,8.4-20.92,20.2-20.92c11.8,0,20.2,9.34,20.2,20.92s-8.39,20.92-20.2,20.92C973.95,74.53,965.56,65.19,965.55,53.61z
		 M1027.66,28.28h-5.65v50.67h5.65v-23.6h30.98v23.61h5.65V28.28h-5.65v21.57h-30.98V28.28z M1074.6,53.61
		c0,14.63,11.29,26.42,25.91,26.42c14.55,0,25.91-11.79,25.91-26.42c0-14.63-11.36-26.42-25.91-26.42
		C1085.89,27.19,1074.6,38.98,1074.6,53.61z M1080.32,53.61c0-11.58,8.4-20.92,20.2-20.92c11.8,0,20.2,9.34,20.2,20.92
		s-8.39,20.92-20.2,20.92C1088.72,74.53,1080.32,65.19,1080.32,53.61z M1134.71,78.95h5.71l3.04-34.09l16.94,34.09h2.39l16.94-34.09
		l3.04,34.09h5.71l-4.56-50.67h-2.31l-20.12,40.39l-19.91-40.39h-2.32L1134.71,78.95z M1204.99,28.28h-5.65v50.67h5.65l28.81-40.83
		v40.83h5.65V28.27h-5.65l-28.81,40.9V28.28z M1251.94,78.95h5.57v-23.6h4.99c6.3,0,11.94,24.03,24.9,24.03
		c1.09,0,2.18-0.14,3.19-0.43V73.3c-0.65,0.14-1.3,0.29-1.96,0.29c-9.63,0-14.62-20.12-21.21-21.06l21.21-24.25h-6.8l-18.96,21.57
		h-5.36V28.28h-5.57V78.95L1251.94,78.95z M1304.66,28.28h-5.65v50.67h5.65l28.81-40.83v40.83h5.65V28.27h-5.65l-28.81,40.9V28.28z
		 M233.13,119.9h-2.42v21.68h2.42v-10.09h13.25v10.09h2.42V119.9h-2.42v9.23h-13.25V119.9z M254.98,141.58h2.7l2.53-6.26h8.42
		l2.57,6.26h2.7l-9.07-21.68h-0.77L254.98,141.58L254.98,141.58z M264.42,125.02l3.22,7.89h-6.44L264.42,125.02z M298.9,141.57v5.11
		h2.17v-7.46h-2.91V119.9h-2.42v19.32H282.5V119.9h-2.42v21.67H298.9L298.9,141.57z M309.78,119.9h-2.42v21.68h2.42l12.32-17.47
		v17.47h2.42V119.9h-2.42l-12.32,17.49V119.9z M331.46,130.74c0,6.25,4.82,11.3,11.08,11.3c6.22,0,11.08-5.05,11.08-11.3
		c0-6.25-4.86-11.3-11.08-11.3C336.29,119.44,331.46,124.48,331.46,130.74z M333.9,130.74c0-4.96,3.59-8.95,8.64-8.95
		s8.64,3.99,8.64,8.95c0,4.95-3.59,8.95-8.64,8.95C337.49,139.68,333.9,135.69,333.9,130.74z M363,119.9h-2.42v21.68H363v-10.09
		h13.25v10.09h2.42V119.9h-2.42v9.23H363V119.9z M384.85,141.58h2.7l2.54-6.26h8.42l2.57,6.26h2.7l-9.07-21.68h-0.77L384.85,141.58
		L384.85,141.58z M394.29,125.02l3.22,7.89h-6.44L394.29,125.02z M408.95,139.16v2.42c0.62,0.09,0.9,0.19,1.45,0.19
		c4.28,0,6.79-3.69,6.79-19.6h8.7v19.41h2.38V119.9H414.9c0,15.7-1.79,19.47-4.95,19.47C409.52,139.37,409.43,139.25,408.95,139.16
		L408.95,139.16z M442.55,129.1l-4,0.03v-9.23h-2.42v21.67h6.41c3.84,0,6.53-2.64,6.53-6.22
		C449.08,131.79,446.39,129.06,442.55,129.1z M446.66,135.38c0,2.53-1.83,3.84-4.46,3.84h-3.66v-7.74h3.66
		C444.9,131.48,446.67,133.12,446.66,135.38z M457.82,119.9h-2.42v21.68h2.42v-10.09h13.25v10.09h2.42V119.9h-2.42v9.23h-13.25
		V119.9z M487.76,129.1l-4,0.03v-9.23h-2.42v21.67h6.41c3.84,0,6.53-2.64,6.53-6.22C494.29,131.79,491.59,129.06,487.76,129.1z
		 M491.87,135.38c0,2.53-1.83,3.84-4.46,3.84h-3.66v-7.74h3.66C490.11,131.48,491.87,133.12,491.87,135.38z M497.14,141.58h2.42
		V119.9h-2.42V141.58L497.14,141.58z M507.41,119.9v21.68h2.42l12.32-17.47v17.47h2.42V119.9h-2.42l-12.32,17.49V119.9H507.41z
		 M516.02,118.79c2.42,0,4.24-0.75,5.48-2.94l-1.79-1.3c-0.96,1.68-1.79,2.17-3.68,2.17c-1.89,0-2.72-0.49-3.68-2.17l-1.79,1.3
		C511.77,118.04,513.6,118.79,516.02,118.79z M549.76,119.9h-2.42v21.68h2.42l12.32-17.47v17.47h2.42V119.9h-2.42l-12.32,17.49
		V119.9z M582.74,142.02c3.81,0,7.19-1.89,9.23-4.8l-1.92-1.36c-1.58,2.3-4.21,3.81-7.3,3.81c-5.05,0-8.86-4-8.86-8.95
		c0-4.96,3.81-8.95,8.86-8.95c3.1,0,5.72,1.51,7.3,3.81l1.92-1.36c-2.04-2.91-5.42-4.8-9.23-4.8c-6.26,0-11.3,5.04-11.3,11.3
		C571.43,136.99,576.48,142.04,582.74,142.02z M608.78,142.02c3.81,0,7.19-1.89,9.23-4.8l-1.92-1.36c-1.58,2.3-4.21,3.81-7.3,3.81
		c-5.04,0-8.85-4-8.85-8.95c0-4.96,3.8-8.95,8.85-8.95c3.1,0,5.72,1.51,7.3,3.81l1.92-1.36c-2.04-2.91-5.42-4.8-9.23-4.8
		c-6.26,0-11.3,5.04-11.3,11.3C597.48,136.99,602.53,142.04,608.78,142.02z M622.93,139.16v2.42c0.62,0.09,0.89,0.19,1.45,0.19
		c4.27,0,6.78-3.69,6.78-19.6h8.7v19.41h2.38V119.9h-13.38c0,15.7-1.79,19.47-4.95,19.47C623.49,139.37,623.39,139.25,622.93,139.16
		L622.93,139.16z M660.85,139.23h-8.33v-7.74h7.55v-2.36h-7.55v-6.87h8.33v-2.36h-10.74v21.67h10.74V139.23z M668.52,141.57h18.23
		v5.11h2.17v-7.46h-2.91V119.9H672.6c0,11.95-2.13,16.19-3.87,19.32h-2.42v7.46h2.2V141.57z M683.59,122.17v17.06h-12.36
		c1.52-2.91,3.66-7.02,3.66-17.06H683.59L683.59,122.17z M693.78,130.74c0,6.25,4.82,11.3,11.08,11.3c6.22,0,11.08-5.05,11.08-11.3
		c0-6.25-4.86-11.3-11.08-11.3C698.6,119.44,693.77,124.48,693.78,130.74z M696.22,130.74c0-4.96,3.59-8.95,8.64-8.95
		c5.05,0,8.64,3.99,8.64,8.95c0,4.95-3.59,8.95-8.64,8.95C699.81,139.68,696.22,135.69,696.22,130.74z M722.9,141.57h6.53
		c3.6,0,6.41-2.48,6.41-5.83c0-2.42-1.17-4.92-4.64-5.57c1.98-0.74,3.28-2.66,3.28-4.95c0-3-2.47-5.32-5.76-5.32h-5.83V141.57
		L722.9,141.57z M725.31,122.26h2.7c2.38,0,4.02,1.17,4.02,3.44c0,2.08-1.3,3.44-3.44,3.44h-3.28V122.26z M728.66,139.23h-3.34
		v-7.74h3.34c2.69,0,4.76,1.64,4.76,3.9C733.43,137.92,731.29,139.23,728.66,139.23L728.66,139.23z M740.62,141.58h2.69l2.54-6.26
		h8.42l2.57,6.26h2.7l-9.07-21.68h-0.77L740.62,141.58L740.62,141.58z M750.05,125.02l3.22,7.89h-6.44L750.05,125.02z
		 M768.61,141.58h2.41v-19.32h7.4v-2.36h-17.21v2.35h7.4V141.58L768.61,141.58z M795.44,139.23h-8.33v-7.74h7.56v-2.36h-7.56v-6.87
		h8.33v-2.36H784.7v21.67h10.74V139.23z M800.76,139.16v2.42c0.62,0.09,0.89,0.19,1.45,0.19c4.27,0,6.78-3.69,6.78-19.6h8.7v19.41
		h2.38V119.9h-13.38c0,15.7-1.8,19.47-4.96,19.47c-0.43,0-0.53-0.12-0.99-0.21H800.76z M834.33,129.1l-4,0.03v-9.23h-2.42v21.67
		h6.41c3.84,0,6.53-2.64,6.53-6.22C840.86,131.79,838.17,129.06,834.33,129.1z M838.45,135.38c0,2.53-1.83,3.84-4.46,3.84h-3.66
		v-7.74h3.66C836.69,131.48,838.45,133.12,838.45,135.38z M858.04,142.02c3.81,0,7.19-1.89,9.23-4.8l-1.92-1.36
		c-1.58,2.3-4.21,3.81-7.3,3.81c-5.05,0-8.86-4-8.86-8.95c0-4.96,3.81-8.95,8.86-8.95c3.1,0,5.72,1.51,7.3,3.81l1.92-1.36
		c-2.04-2.91-5.42-4.8-9.23-4.8c-6.26,0-11.3,5.04-11.3,11.3C846.74,136.99,851.79,142.04,858.04,142.02z M873.86,141.58h2.38
		v-10.09h2.13c2.7,0,5.11,10.28,10.66,10.28c0.46,0,0.93-0.06,1.36-0.19v-2.42c-0.27,0.07-0.55,0.13-0.83,0.13
		c-4.12,0-6.26-8.61-9.07-9.01l9.07-10.37h-2.91l-8.11,9.23h-2.3v-9.23h-2.38V141.58L873.86,141.58z M898.92,119.9h-2.42v21.68h2.42
		l12.32-17.47v17.47h2.41V119.9h-2.41l-12.32,17.49V119.9z M921.51,119.9v21.68h2.42l12.32-17.47v17.47h2.42V119.9h-2.42
		l-12.32,17.49V119.9H921.51z M930.12,118.79c2.42,0,4.23-0.75,5.48-2.94l-1.79-1.3c-0.96,1.68-1.79,2.17-3.68,2.17
		c-1.89,0-2.72-0.49-3.68-2.17l-1.79,1.3C925.88,118.04,927.7,118.79,930.12,118.79z M965.16,141.57h2.72l10.62-21.68h-2.76
		l-6.72,13.78l-6.81-13.78h-2.79l8.24,16.57L965.16,141.57z M986.96,119.9h-2.42v21.68h2.42v-10.09h13.25v10.09h2.42V119.9h-2.42
		v9.23h-13.25V119.9z M1012.9,119.9h-2.42v21.68h2.42l12.32-17.47v17.47h2.42V119.9h-2.42l-12.32,17.49V119.9z M1035.49,141.57h6.53
		c3.6,0,6.41-2.48,6.41-5.83c0-2.42-1.17-4.92-4.64-5.57c1.98-0.74,3.28-2.66,3.28-4.95c0-3-2.47-5.32-5.76-5.32h-5.83V141.57
		L1035.49,141.57z M1037.91,122.26h2.7c2.38,0,4.02,1.17,4.02,3.44c0,2.08-1.3,3.44-3.44,3.44h-3.28V122.26z M1041.25,139.23h-3.34
		v-7.74h3.34c2.7,0,4.77,1.64,4.77,3.9C1046.02,137.92,1043.88,139.23,1041.25,139.23L1041.25,139.23z M1065.86,139.23h-8.33v-7.74
		h7.55v-2.36h-7.55v-6.87h8.33v-2.36h-10.74v21.67h10.74V139.23z M1074.65,133.47h3.5c3.88,0,6.94-3.07,6.94-6.81
		c0-3.75-3.07-6.75-6.94-6.75h-5.91v21.67h2.42V133.47L1074.65,133.47z M1074.66,131.11v-8.85h3.25c2.64,0,4.77,1.85,4.77,4.4
		c0,2.53-2.14,4.46-4.77,4.46H1074.66z M1102.31,142.02c3.81,0,7.19-1.89,9.23-4.8l-1.92-1.36c-1.58,2.3-4.21,3.81-7.3,3.81
		c-5.04,0-8.85-4-8.85-8.95c0-4.96,3.8-8.95,8.85-8.95c3.1,0,5.72,1.51,7.3,3.81l1.92-1.36c-2.04-2.91-5.42-4.8-9.23-4.8
		c-6.26,0-11.3,5.04-11.3,11.3C1091,136.99,1096.06,142.04,1102.31,142.02z M1120.54,119.9h-2.42v21.68h2.42l12.32-17.47v17.47h2.42
		V119.9h-2.42l-12.32,17.49V119.9z M1148.94,141.58h2.42v-19.32h7.4v-2.36h-17.21v2.35h7.4V141.58L1148.94,141.58z M1175.76,139.23
		h-8.33v-7.74h7.55v-2.36h-7.55v-6.87h8.33v-2.36h-10.74v21.67h10.74V139.23z M1188.71,141.58h2.42v-19.32h7.4v-2.36h-17.21v2.35
		h7.4V141.58L1188.71,141.58z"/>
	<g>
		<path class="st1" d="M81.36,80.35h-0.34v-6.37h0.47c8.1,0,13.02-4.64,15.23-7.41c3.47-4.22,4.18-8.13,4.36-11.44H81.16v-6.29h19.7
			c-0.58-3.8-2.05-7.29-4.18-9.87c-3.44-4.27-8.44-6.43-14.88-6.43l-10.93-0.01v101.29h10.3V95.76h15.01v38.01h11.73v-17.36
			C107.9,91.8,99.47,80.35,81.36,80.35z"/>
		<path class="st2" d="M100.51,77.35c5.1-2.28,8.24-5.53,10.42-8.14c4.98-5.71,6.02-12.18,6.02-16.61c0-3.84-0.91-13.49-9.34-20.09
			c-5.43-4.19-10.34-6.32-22.06-6.32h-5.84c-0.19-0.01-0.36-0.01-0.59-0.01H54.65v114.56h69.53v-22.2
			C124.18,96.5,116.66,83.39,100.51,77.35z M107.9,133.77H96.17V95.76H81.16v38.06h-10.3V32.53l10.93,0.01
			c6.44,0,11.45,2.16,14.88,6.43c2.13,2.57,3.61,6.07,4.18,9.87h-19.7v6.29h19.91c-0.18,3.3-0.88,7.21-4.36,11.44
			c-2.21,2.77-7.13,7.41-15.23,7.41h-0.47v6.37h0.34c18.11,0,26.55,11.46,26.55,36.06V133.77z"/>
	</g>
</g>
</svg>
